<svg width="234.86958007812498px" height="90.8px" xmlns="http://www.w3.org/2000/svg" viewBox="132.56520996093752 29.6 234.86958007812498 90.8" style="background: rgba(0, 0, 0, 0);" preserveAspectRatio="xMidYMid"><defs><linearGradient id="editing-gradient-gradient" x1="0" x2="1" y1="0.5" y2="0.5" gradientUnits="objectBoundingBox"><stop offset="0" stop-color="#04130e"></stop><stop offset="1" stop-color="#d47b25"></stop></linearGradient></defs><g><g transform="translate(171.99099120497704, 91.6500015258789)"><path d="M19.57-6.93L19.57-6.93L19.57-6.93Q20.43-5.85 20.43-3.76L20.43-3.76L20.43-3.76Q20.43-1.67 18.83-0.38L18.83-0.38L18.83-0.38Q17.23 0.90 14.45 0.90L14.45 0.90L14.45 0.90Q12.82 0.90 10.30 0.54L10.30 0.54L10.30 0.54Q5.35-0.22 3.94-0.22L3.94-0.22L3.94-0.22Q2.52-0.22 1.93-0.16L1.93-0.16L1.93-0.16Q1.35-0.09 0.40 0L0.40 0L5.85-29.70L15.71-29.70L11.21-4.95L11.21-4.95Q11.79-4.86 12.33-4.86L12.33-4.86L13.46-4.86L13.46-4.86Q17.23-4.86 19.57-6.93ZM41.67-7.60L41.67-7.60L41.67-7.60Q42.80-6.84 42.80-5.15L42.80-5.15L42.80-5.15Q42.80-3.46 41.94-2.38L41.94-2.38L41.94-2.38Q41.08-1.30 39.69-0.58L39.69-0.58L39.69-0.58Q36.81 0.90 33.70 0.90L33.70 0.90L33.70 0.90Q30.60 0.90 28.78 0.22L28.78 0.22L28.78 0.22Q26.95-0.45 25.74-1.71L25.74-1.71L25.74-1.71Q23.36-4.09 23.36-8.46L23.36-8.46L23.36-8.46Q23.36-15.25 27.05-19.39L27.05-19.39L27.05-19.39Q31.00-23.85 37.89-23.85L37.89-23.85L37.89-23.85Q42.16-23.85 44.28-22.05L44.28-22.05L44.28-22.05Q45.86-20.70 45.86-18.50L45.86-18.50L45.86-18.50Q45.86-10.57 32.17-10.57L32.17-10.57L32.17-10.57Q31.99-9.40 31.99-8.41L31.99-8.41L31.99-8.41Q31.99-6.34 32.92-5.56L32.92-5.56L32.92-5.56Q33.84-4.77 35.55-4.77L35.55-4.77L35.55-4.77Q37.26-4.77 39.08-5.56L39.08-5.56L39.08-5.56Q40.91-6.34 41.67-7.60ZM32.49-12.51L32.49-12.51L32.49-12.51Q35.69-12.51 37.53-14.49L37.53-14.49L37.53-14.49Q39.38-16.38 39.38-19.39L39.38-19.39L39.38-19.39Q39.38-20.43 38.99-20.99L38.99-20.99L38.99-20.99Q38.61-21.55 37.84-21.55L37.84-21.55L37.84-21.55Q37.08-21.55 36.43-21.26L36.43-21.26L36.43-21.26Q35.77-20.97 35.10-19.98L35.10-19.98L35.10-19.98Q33.44-17.73 32.49-12.51ZM58.99-21.33L58.99-21.33L58.99-21.33Q61.42-23.85 66.55-23.85L66.55-23.85L66.55-23.85Q69.39-23.85 70.94-22.34L70.94-22.34L70.94-22.34Q72.50-20.84 72.50-18.07L72.50-18.07L72.50-18.07Q72.50-15.30 70.94-13.34L70.94-13.34L70.94-13.34Q69.39-11.38 66.51-10.57L66.51-10.57L66.51-10.57Q66.73-9.67 67.05-8.73L67.05-8.73L67.68-6.93L67.68-6.93Q68.53-4.63 69.21-3.82L69.21-3.82L69.21-3.82Q69.88-3.01 70.78-2.75L70.78-2.75L70.78-2.75Q70.29-0.90 68.49 0.09L68.49 0.09L68.49 0.09Q67.05 0.90 65.07 0.90L65.07 0.90L65.07 0.90Q59.27 0.90 58.50-8.05L58.50-8.05L58.50-8.05Q58.36-9.31 58.36-10.57L58.36-10.57L58.36-10.57Q60.61-11.21 62.19-13.32L62.19-13.32L62.19-13.32Q63.77-15.43 63.77-17.91L63.77-17.91L63.77-17.91Q63.77-20.38 62.01-20.38L62.01-20.38L62.01-20.38Q60.75-20.38 59.76-18.99L59.76-18.99L59.76-18.99Q58.77-17.59 58.32-15.21L58.32-15.21L55.35 0L46.26 0.90L52.56-31.50L61.60-32.40L60.57-27.04L60.57-27.04Q59.89-23.27 58.99-21.33ZM108.13-7.51L108.13-7.51Q105.16-3.42 102.31-1.26L102.31-1.26L102.31-1.26Q99.45 0.90 96.50 0.90L96.50 0.90L96.50 0.90Q93.55 0.90 92.52 0.32L92.52 0.32L92.52-9.58L92.52-9.58Q89.95-2.75 85.36-0.09L85.36-0.09L85.36-0.09Q83.70 0.90 82.13 0.90L82.13 0.90L82.13 0.90Q79.11 0.90 77.80 0.32L77.80 0.32L77.80 0.32Q77.49-9.99 77.22-12.85L77.22-12.85L77.22-12.85Q76.95-15.71 76.72-17.46L76.72-17.46L76.72-17.46Q76.27-20.97 74.74-22.41L74.74-22.41L74.74-22.41Q76.68-23.85 79.38-23.85L79.38-23.85L79.38-23.85Q84.60-23.85 85.32-17.37L85.32-17.37L85.32-17.37Q85.50-15.84 85.50-14.22L85.50-14.22L85.50-14.22Q85.50-11.79 84.96-3.33L84.96-3.33L84.96-3.33Q86.04-3.82 87.19-5.60L87.19-5.60L87.19-5.60Q88.33-7.38 89.28-9.81L89.28-9.81L89.28-9.81Q91.39-15.43 91.39-20.29L91.39-20.29L91.39-20.29Q91.39-21.06 91.19-21.87L91.19-21.87L91.19-21.87Q90.99-22.68 90.77-22.90L90.77-22.90L90.77-22.90Q92.34-23.85 94.75-23.85L94.75-23.85L94.75-23.85Q97.16-23.85 98.30-22.21L98.30-22.21L98.30-22.21Q99.45-20.56 99.77-17.55L99.77-17.55L99.77-17.55Q100.13-13.72 100.13-11.43L100.13-11.43L100.13-11.43Q100.13-8.23 99.81-3.51L99.81-3.51L99.81-3.51Q102.06-5.13 103.91-10.44L103.91-10.44L103.91-10.44Q105.75-15.75 105.75-19.53L105.75-19.53L105.75-19.53Q105.75-21.20 105.48-22.18L105.48-22.18L105.48-22.18Q106.97-23.85 109.53-23.85L109.53-23.85L109.53-23.85Q111.10-23.85 112.25-22.99L112.25-22.99L112.25-22.99Q113.40-22.14 113.40-20.54L113.40-20.54L113.40-20.54Q113.40-18.95 112.93-17.23L112.93-17.23L112.93-17.23Q112.45-15.52 111.69-13.77L111.69-13.77L111.69-13.77Q110.20-10.26 108.13-7.51L108.13-7.51ZM116.57-1.35L116.57-1.35L116.57-1.35Q115.52-2.52 115.04-4.37L115.04-4.37L115.04-4.37Q114.57-6.21 114.57-9.22L114.57-9.22L114.57-9.22Q114.57-12.24 115.60-14.98L115.60-14.98L115.60-14.98Q116.64-17.73 118.53-19.71L118.53-19.71L118.53-19.71Q122.40-23.85 128.79-23.85L128.79-23.85L128.79-23.85Q131.08-23.85 132.75-23.09L132.75-23.09L140.44-23.85L137.12-6.30L137.12-6.30Q136.98-5.76 136.98-4.77L136.98-4.77L136.98-4.77Q136.98-3.78 137.59-3.15L137.59-3.15L137.59-3.15Q138.19-2.52 139.09-2.43L139.09-2.43L139.09-2.43Q138.64-0.90 137.00 0L137.00 0L137.00 0Q135.36 0.90 133.51 0.90L133.51 0.90L133.51 0.90Q131.67 0.90 130.43 0.20L130.43 0.20L130.43 0.20Q129.19-0.49 128.83-1.67L128.83-1.67L128.83-1.67Q128.11-0.54 126.58 0.18L126.58 0.18L126.58 0.18Q125.05 0.90 123.01 0.90L123.01 0.90L123.01 0.90Q120.96 0.90 119.29 0.36L119.29 0.36L119.29 0.36Q117.63-0.18 116.57-1.35ZM126.07-19.62L126.07-19.62L126.07-19.62Q125.55-18.81 125.10-17.44L125.10-17.44L125.10-17.44Q124.65-16.06 123.91-12.40L123.91-12.40L123.91-12.40Q123.16-8.73 123.16-6.12L123.16-6.12L123.16-6.12Q123.16-3.51 123.57-2.75L123.57-2.75L123.57-2.75Q123.97-1.98 124.69-1.98L124.69-1.98L124.69-1.98Q126.13-1.98 127.19-3.35L127.19-3.35L127.19-3.35Q128.25-4.72 128.66-7.15L128.66-7.15L131.04-20.34L131.04-20.34Q130.09-21.15 128.99-21.15L128.99-21.15L128.99-21.15Q127.89-21.15 127.24-20.79L127.24-20.79L127.24-20.79Q126.58-20.43 126.07-19.62ZM153.63-2.48L153.63-2.48L153.63-2.48Q152.23 0.90 147.78 0.90L147.78 0.90L147.78 0.90Q145.53 0.90 144.09-0.67L144.09-0.67L144.09-0.67Q142.92-1.98 142.92-3.46L142.92-3.46L142.92-3.46Q142.92-6.84 144.49-14.22L144.49-14.22L147.78-31.50L156.91-32.40L152.55-9.63L152.55-9.63Q151.78-6.30 151.78-5.13L151.78-5.13L151.78-5.13Q151.78-2.56 153.63-2.48Z" fill="url(#editing-gradient-gradient)"></path></g></g><style>text {
  font-size: 64px;
  font-family: Arial Black;
  dominant-baseline: central;
  text-anchor: middle;
}</style></svg>